<?xml version="1.0" standalone="no"?>
<!DOCTYPE svg PUBLIC "-//W3C//DTD SVG 20010904//EN"
 "http://www.w3.org/TR/2001/REC-SVG-20010904/DTD/svg10.dtd">
<svg version="1.0" xmlns="http://www.w3.org/2000/svg"
 width="600.000000pt" height="600.000000pt" viewBox="0 0 600.000000 600.000000"
 preserveAspectRatio="xMidYMid meet">
<metadata>
Created by potrace 1.16, written by Peter Selinger 2001-2019
</metadata>
<g transform="translate(0.000000,600.000000) scale(0.100000,-0.100000)"
fill="#000000" stroke="none">
<path d="M2282 3620 c3 -14 20 -87 37 -163 39 -171 75 -380 95 -557 15 -133
36 -436 36 -536 l0 -51 -69 -12 c-99 -16 -101 -16 -101 18 0 45 -46 283 -80
417 -40 156 -110 362 -155 455 -41 87 -38 75 22 -81 80 -205 177 -583 199
-771 l6 -55 -103 -18 c-57 -10 -108 -20 -114 -22 -6 -3 -21 29 -34 73 -38 131
-148 410 -157 400 -2 -1 15 -47 36 -101 44 -109 117 -322 122 -357 3 -20 -4
-25 -56 -40 l-60 -18 -90 83 c-312 285 -698 537 -1070 696 -110 47 -270 100
-302 100 -40 0 -114 -174 -168 -392 -154 -624 -113 -1392 102 -1893 24 -56 25
-69 23 -200 -3 -193 19 -396 60 -557 l10 -38 2544 0 2544 0 10 38 c37 140 63
380 60 552 -2 113 -1 116 34 190 79 167 146 404 184 647 27 171 24 650 -5 840
-52 345 -155 677 -252 813 -14 19 -20 45 -21 82 0 29 -4 62 -9 73 -6 17 -9 13
-14 -20 -4 -22 -8 -47 -9 -55 -1 -8 -21 -20 -45 -26 -40 -12 -42 -12 -42 7 0
26 -21 20 -36 -10 -8 -15 -44 -36 -117 -65 -350 -143 -751 -417 -1044 -714
-62 -62 -113 -109 -113 -104 0 18 97 296 134 387 21 50 76 164 122 255 99 192
96 201 -5 16 -100 -185 -194 -411 -252 -606 -12 -41 -23 -77 -25 -78 -1 -2
-42 9 -91 26 -48 16 -124 37 -168 47 -44 10 -86 19 -92 21 -9 2 -11 17 -8 46
3 24 10 90 16 148 20 195 68 422 136 640 35 116 117 329 148 389 9 18 14 35
12 37 -2 3 -25 -41 -49 -98 -155 -353 -239 -688 -274 -1092 l-6 -68 -36 6
c-221 34 -842 40 -1088 10 l-151 -19 -6 186 c-13 367 -60 705 -142 1030 -15
57 -29 106 -32 109 -3 3 -3 -6 -1 -20z m-1080 -1031 c-32 -12 -27 -19 10 -15
35 3 107 -38 108 -63 0 -8 6 -11 16 -7 8 3 12 2 9 -4 -3 -6 1 -10 9 -10 9 0
16 -4 16 -10 0 -5 -4 -10 -9 -10 -6 0 -13 5 -16 10 -3 6 -12 10 -18 10 -7 0
-6 -4 3 -10 13 -8 12 -10 -4 -10 -13 0 -16 5 -12 18 5 14 4 14 -9 -2 -12 -16
-15 -17 -15 -4 0 9 6 18 13 21 9 3 9 7 -2 20 -7 10 -19 17 -25 17 -6 0 -3 -5
7 -11 9 -6 14 -15 11 -21 -5 -7 -12 -5 -20 7 -11 14 -18 16 -36 8 -15 -6 -18
-12 -10 -17 7 -4 12 -2 12 4 0 6 5 8 11 4 8 -5 8 -9 -1 -14 -9 -5 -9 -9 -1
-14 6 -4 11 -2 11 3 0 6 5 11 11 11 6 0 9 -8 7 -18 -4 -15 2 -18 41 -20 91 -5
91 -5 78 -20 -10 -13 -8 -14 13 -9 14 4 19 4 12 1 -6 -3 -10 -10 -7 -14 3 -5
0 -12 -6 -16 -8 -4 -9 -3 -5 4 5 8 1 10 -10 5 -10 -3 -15 -2 -12 3 3 5 1 14
-6 19 -15 14 -66 17 -66 4 0 -6 4 -8 9 -5 8 5 23 -16 25 -36 1 -3 4 -10 8 -13
4 -4 5 4 2 19 -2 14 0 26 5 26 15 0 19 -23 9 -49 -8 -24 -9 -24 -22 -5 -8 10
-15 24 -17 29 -2 6 -16 19 -31 30 -62 46 -167 145 -159 150 5 3 16 2 25 -1 9
-4 18 0 22 9 3 9 12 13 21 10 13 -5 12 -8 -5 -14z m3581 -64 c16 -7 14 -12
-20 -47 -21 -21 -36 -42 -33 -46 3 -4 -5 -8 -18 -10 -13 -2 -26 -10 -29 -18
-3 -8 -9 -11 -14 -8 -5 3 -9 -2 -9 -11 0 -9 5 -13 10 -10 6 3 10 1 10 -4 0
-14 -17 -14 -25 -1 -9 15 -25 2 -25 -21 0 -11 7 -19 16 -19 8 0 12 5 9 10 -3
6 -1 10 4 10 21 0 11 -21 -14 -30 -14 -5 -25 -15 -25 -21 0 -8 5 -7 17 2 13
11 13 8 -3 -16 -10 -16 -25 -36 -32 -44 -7 -7 -11 -19 -8 -27 3 -9 -3 -11 -20
-8 -17 3 -24 0 -24 -10 0 -10 -6 -13 -15 -10 -8 4 -15 1 -15 -5 0 -6 4 -11 9
-11 6 0 11 -57 13 -130 2 -94 0 -129 -8 -126 -6 2 -11 -1 -11 -7 1 -37 -4 -52
-12 -39 -4 8 -8 79 -7 158 1 105 -2 143 -11 140 -23 -9 -22 7 2 26 14 11 26
29 26 41 1 17 3 15 9 -8 7 -28 8 -29 10 -5 1 14 3 38 5 54 4 28 4 28 -11 8 -8
-12 -20 -35 -25 -52 -6 -16 -15 -30 -19 -30 -10 0 11 61 28 78 6 7 12 20 12
28 0 12 4 12 21 4 11 -7 23 -9 27 -6 3 3 1 6 -5 6 -17 0 -22 37 -8 56 11 16
13 16 24 -5 7 -13 10 -25 7 -29 -3 -3 -6 0 -6 7 0 7 -5 9 -12 5 -8 -5 -6 -11
6 -20 10 -7 17 -16 18 -21 0 -4 3 -14 7 -22 5 -7 8 5 7 30 -1 24 -4 46 -7 49
-4 3 -9 16 -13 30 -6 19 -5 21 3 10 10 -14 16 -7 11 15 -1 6 2 7 6 3 8 -9 34
10 34 24 0 6 -8 4 -17 -3 -10 -7 -6 0 8 16 14 17 32 37 40 46 11 14 15 14 27
2 16 -16 34 -13 40 7 3 7 0 10 -7 6 -13 -9 -33 2 -26 14 6 9 40 7 68 -5z
m-3375 -137 c9 -9 12 -9 12 0 0 17 48 -3 71 -31 23 -27 25 -44 2 -26 -9 8 -19
14 -22 14 -3 0 -5 5 -3 12 1 6 -1 14 -6 17 -4 2 -8 -7 -7 -22 0 -18 5 -27 16
-26 10 1 23 -14 34 -38 15 -34 19 -37 33 -26 15 11 15 11 5 -2 -12 -16 -3 -43
13 -40 5 1 10 -4 13 -11 2 -7 -1 -9 -8 -5 -8 6 -10 0 -5 -19 l7 -27 -27 23
c-14 12 -26 29 -26 38 0 11 3 10 15 -5 14 -18 14 -18 9 3 -4 13 -13 21 -24 20
-15 -1 -16 -5 -9 -26 6 -13 8 -30 5 -37 -3 -7 2 -10 14 -7 29 8 34 -9 39 -132
1 -13 4 -16 11 -9 7 7 8 30 2 70 -6 32 -6 68 -1 79 7 18 8 18 9 -5 7 -115 1
-211 -13 -203 -4 3 -7 -8 -5 -24 2 -20 -1 -28 -12 -28 -20 0 -40 -20 -40 -39
0 -10 6 -13 16 -9 8 3 13 12 10 19 -3 8 -1 14 4 14 16 0 11 -30 -6 -37 -8 -3
-13 -12 -10 -20 3 -8 2 -11 -3 -8 -9 5 -27 -32 -23 -48 1 -4 -3 -6 -9 -5 -6 2
-14 -3 -17 -11 -3 -9 0 -11 8 -6 8 5 11 4 6 -3 -6 -10 -36 -6 -36 4 0 2 11 15
26 29 14 14 22 30 18 37 -5 7 -10 3 -16 -12 -5 -12 -11 -20 -14 -17 -3 3 -1
14 5 25 6 12 11 36 11 54 0 18 5 40 10 48 7 11 9 5 5 -20 -4 -29 -3 -31 4 -10
5 14 9 43 9 65 0 35 -1 37 -9 15 -10 -30 -5 111 6 150 l6 25 -16 -25 c-9 -14
-14 -17 -11 -7 3 10 -1 28 -9 41 -11 16 -13 30 -7 46 10 26 -1 55 -33 86 -19
19 -19 19 -11 -1 18 -45 17 -49 -3 -20 -12 17 -19 39 -16 51 2 11 -2 29 -10
40 -24 31 -14 49 13 22z m652 -1020 c107 -26 239 -100 323 -182 178 -172 230
-454 110 -587 -68 -75 -163 -106 -427 -139 -93 -11 -234 -37 -315 -56 -151
-37 -281 -52 -345 -40 -53 10 -111 66 -132 128 -26 79 -16 257 21 367 85 252
298 469 508 516 66 15 177 12 257 -7z m2155 -94 c233 -56 464 -265 536 -485
19 -59 24 -93 23 -169 -4 -316 -195 -370 -701 -200 -67 22 -190 56 -274 75
-186 43 -248 69 -284 123 -61 92 -51 275 23 418 104 201 399 305 677 238z
m-1074 -803 c-11 -7 -4 -12 25 -20 21 -6 45 -11 53 -11 8 0 11 -3 8 -7 -10
-10 31 -35 45 -27 6 4 8 3 4 -4 -3 -6 -2 -22 4 -36 8 -21 6 -30 -10 -46 -26
-26 -74 -26 -173 -1 -103 26 -161 58 -165 93 -4 36 24 50 118 58 41 4 82 8 90
8 13 1 13 0 1 -7z"/>
<path d="M2075 1151 c-90 -22 -163 -80 -204 -163 -76 -151 -13 -322 149 -400
35 -17 64 -22 130 -22 73 -1 93 3 142 27 105 52 170 151 171 261 0 34 -3 71
-7 84 l-8 23 -34 -31 c-46 -40 -92 -41 -135 -2 -27 24 -33 37 -37 84 -3 38 1
64 12 86 9 17 16 33 16 36 0 3 -17 10 -37 15 -42 12 -113 13 -158 2z"/>
<path d="M3772 1141 c-62 -21 -117 -63 -154 -117 -79 -115 -58 -287 45 -381
149 -135 386 -96 482 78 27 48 30 63 30 141 0 47 -3 89 -6 93 -4 3 -20 -8 -37
-25 -55 -55 -136 -35 -166 41 -21 52 -20 77 4 124 11 22 20 40 20 42 0 1 -17
7 -37 12 -56 16 -121 13 -181 -8z"/>
</g>
</svg>
